<svg width="33" height="33" viewBox="0 0 33 33" fill="none" xmlns="http://www.w3.org/2000/svg">
<path d="M31.9885 32.0833C30.0335 32.0367 28.1251 32.0367 26.1701 32.0833C25.7512 32.0833 25.6581 31.9902 25.6581 31.5713C25.6581 28.1268 25.6581 24.6358 25.6581 21.1913C25.6581 20.4 25.6115 19.6087 25.3788 18.864C24.6806 16.4435 21.8878 15.5591 19.8863 17.1883C18.8157 18.0261 18.3968 19.1898 18.3968 20.5862C18.3968 23.8445 18.3968 27.1028 18.3968 30.3611C18.3968 30.78 18.3502 31.1989 18.3968 31.6644C18.4433 32.0367 18.2571 32.1298 17.9313 32.0833C15.9298 32.0833 13.9748 32.0833 11.9733 32.0833C11.6009 32.0833 11.5078 31.9902 11.5078 31.6178C11.5544 28.6854 11.5544 25.7529 11.5544 22.7739C11.5544 19.1432 11.5544 15.5126 11.5078 11.9285C11.5078 11.5095 11.6009 11.4164 11.9733 11.4164C13.9748 11.4164 15.9298 11.4164 17.9313 11.4164C18.3037 11.4164 18.3968 11.5095 18.3968 11.8819C18.3968 12.6267 18.3968 13.3714 18.3968 14.2558C18.5364 14.1162 18.583 14.0696 18.6295 14.0231C20.4448 11.3699 23.0049 10.6251 26.0305 11.0906C29.5215 11.6492 31.7557 14.0696 32.3143 17.7934C32.4539 18.6778 32.5005 19.5622 32.5005 20.4466C32.5005 24.1703 32.5005 27.8475 32.5005 31.5713C32.5005 31.9437 32.4074 32.0833 31.9885 32.0833Z" fill="#888888"/>
<path d="M7.78381 21.7499C7.78381 25.0082 7.78381 28.2665 7.78381 31.5248C7.78381 31.9437 7.69072 32.0834 7.27179 32.0834C5.31682 32.0368 3.36185 32.0834 1.40688 32.0834C1.0345 32.0834 0.941406 31.9903 0.941406 31.6179C0.941406 25.0548 0.941406 18.4451 0.941406 11.882C0.941406 11.5561 1.0345 11.4165 1.40688 11.4165C3.4084 11.4165 5.40991 11.4165 7.41143 11.4165C7.83036 11.4165 7.8769 11.5561 7.8769 11.9285C7.78381 15.1868 7.78381 18.4451 7.78381 21.7499Z" fill="#888888"/>
<path d="M8.10939 6.0169C7.64392 7.87878 5.7355 8.94936 3.54779 8.57698C1.22044 8.20461 -0.0828744 5.92381 0.754971 3.68955C1.31353 2.29314 2.6634 1.4553 4.38563 1.50184C6.99226 1.4553 8.7145 3.54991 8.10939 6.0169Z" fill="#888888"/>
</svg>
