<svg width="33" height="28" viewBox="0 0 33 28" fill="none" xmlns="http://www.w3.org/2000/svg">
<path d="M33 27.0139L30.5315 24.543C30.2717 24.413 30.1417 24.0228 30.1417 23.7627V3.99523C30.1417 3.73513 30.2717 3.34498 30.5315 3.08488L33 0.223797V0.09375H24.1654L17.5394 16.8701L10.0039 0.09375H0.909449V0.223797L3.24803 3.47503C3.76772 3.99523 3.89764 4.77552 3.89764 5.42577V19.7312C4.02756 20.5115 3.89764 21.4218 3.50787 22.2021L0 27.0139V27.144H9.35433V27.0139L5.84646 22.3322C5.45669 21.5519 5.32677 20.7716 5.45669 19.8612V6.85631C5.58661 7.11641 5.71654 7.11641 5.84646 7.63661L14.6811 27.4041H14.811L23.3858 5.94597C23.2559 6.72626 23.2559 7.63661 23.2559 8.28685V23.6327C23.2559 24.0228 23.126 24.2829 22.8661 24.543L20.2677 27.0139V27.144H33V27.0139Z" fill="white"/>
</svg>
