<svg width="33" height="33" viewBox="0 0 33 33" fill="none" xmlns="http://www.w3.org/2000/svg">
<path fill-rule="evenodd" clip-rule="evenodd" d="M29.9557 1.16591C28.9268 0.577794 27.7238 0.370148 26.5572 0.579297C25.3907 0.788445 24.3348 1.40107 23.5744 2.30999C22.814 3.21889 22.3974 4.36619 22.3975 5.55118C22.397 6.04461 22.4689 6.53534 22.6106 7.00773L9.34754 13.1667C8.67989 12.4061 7.79877 11.8633 6.81818 11.6092C5.8193 11.3504 4.76513 11.4037 3.79746 11.762C2.82979 12.1202 1.99505 12.7661 1.40553 13.6129C0.816015 14.4597 0.5 15.4667 0.5 16.4984C0.5 17.5301 0.816015 18.5371 1.40553 19.3839C1.99505 20.2307 2.82979 20.8766 3.79746 21.2348C4.76513 21.593 5.8193 21.6463 6.81818 21.3876C7.79877 21.1335 8.67989 20.5907 9.34754 19.8301L22.6105 25.989C22.2554 27.1645 22.3406 28.43 22.8516 29.5483C23.3717 30.6865 24.2959 31.5911 25.445 32.0868C26.5942 32.5825 27.8865 32.634 29.0714 32.2314C30.2564 31.8287 31.2496 31.0005 31.8587 29.9073C32.4678 28.8141 32.6493 27.5338 32.368 26.3144C32.0868 25.095 31.3628 24.0235 30.3365 23.3074C29.3101 22.5913 28.0544 22.2817 26.8127 22.4386C25.5898 22.5931 24.4663 23.1893 23.653 24.1138L10.39 17.9549C10.6762 17.005 10.6762 15.9918 10.39 15.0419L23.653 8.88298C24.4217 9.7584 25.47 10.3417 26.6205 10.5329C27.7896 10.7272 28.9898 10.5043 30.0112 9.90317C31.0325 9.30203 31.8099 8.36096 32.2074 7.24458C32.6049 6.1282 32.5972 4.90762 32.1855 3.79638C31.7739 2.68514 30.9845 1.75402 29.9557 1.16591ZM25.3902 3.49291C25.9361 2.947 26.6766 2.64032 27.4488 2.64032C28.2209 2.64032 28.9614 2.947 29.5074 3.49291C30.0533 4.03882 30.3601 4.77923 30.3601 5.55125C30.3601 6.32328 30.0533 7.06368 29.5074 7.60959C28.9614 8.1555 28.2209 8.46218 27.4488 8.46218C26.6766 8.46218 25.9361 8.1555 25.3902 7.60959C24.8442 7.06368 24.5375 6.32328 24.5375 5.55125C24.5375 4.77923 24.8442 4.03882 25.3902 3.49291ZM3.49316 14.4401C4.03914 13.8941 4.77964 13.5875 5.55177 13.5875C6.3239 13.5875 7.0644 13.8941 7.61037 14.4401C8.15635 14.986 8.46307 15.7264 8.46307 16.4984C8.46307 17.2704 8.15635 18.0108 7.61037 18.5567C7.0644 19.1026 6.3239 19.4093 5.55177 19.4093C4.77964 19.4093 4.03914 19.1026 3.49316 18.5567C2.94719 18.0108 2.64046 17.2704 2.64046 16.4984C2.64046 15.7264 2.94719 14.986 3.49316 14.4401ZM25.3902 25.3872C25.9361 24.8413 26.6766 24.5346 27.4488 24.5346C28.2209 24.5346 28.9614 24.8413 29.5074 25.3872C30.0533 25.9331 30.3601 26.6735 30.3601 27.4455C30.3601 28.2176 30.0533 28.958 29.5074 29.5039C28.9614 30.0498 28.2209 30.3565 27.4488 30.3565C26.6766 30.3565 25.9361 30.0498 25.3902 29.5039C24.8442 28.958 24.5375 28.2176 24.5375 27.4455C24.5375 26.6735 24.8442 25.9331 25.3902 25.3872Z" fill="white"/>
</svg>
