<svg width="27" height="33" viewBox="0 0 27 33" fill="none" xmlns="http://www.w3.org/2000/svg">
<path d="M11.1889 22.29C11.8467 23.5416 13.7746 24.6015 15.8217 24.6015C21.9175 24.6015 26.3065 19.0257 26.3065 12.1025C26.3065 5.46688 20.8571 0.5 13.8484 0.5C5.12713 0.5 0.5 6.31818 0.5 12.6607C0.5 15.6092 2.0764 19.2738 4.59977 20.4408C4.98537 20.6212 5.1895 20.5423 5.27456 20.1758C5.34261 19.8939 5.68284 18.5352 5.83594 17.8982C5.89265 17.6952 5.84161 17.4753 5.69418 17.3231C4.86062 16.314 4.1915 14.4648 4.1915 12.7396C4.1915 8.30832 7.56544 4.01797 13.3153 4.01797C18.2827 4.01797 21.7587 7.37808 21.7587 12.1927C21.7587 17.6276 18.9972 21.3936 15.4021 21.3936C13.4174 21.3936 11.9317 19.7643 12.4081 17.7629C12.9808 15.3724 14.0809 12.796 14.0809 11.0708C14.0809 9.52608 13.2473 8.24066 11.5235 8.24066C9.49341 8.24066 7.86598 10.3266 7.86598 13.1173C7.86598 14.8989 8.47273 16.0997 8.47273 16.0997C8.47273 16.0997 6.47104 24.5169 6.10246 26.0842C5.68284 27.8883 5.87564 30.476 6.05709 32.0546C6.47104 32.2125 6.87931 32.3703 7.3046 32.5C8.12682 31.1864 9.45372 28.8749 9.92437 27.0595C10.1739 26.1293 11.1889 22.29 11.1889 22.29Z" fill="white"/>
</svg>
