<svg width="27" height="27" viewBox="0 0 27 27" fill="none" xmlns="http://www.w3.org/2000/svg">
<path fill-rule="evenodd" clip-rule="evenodd" d="M22.2838 15.799C19.1596 18.9232 14.0943 18.9232 10.9701 15.799C7.8459 12.6748 7.8459 7.60948 10.9701 4.48528C14.0943 1.36109 19.1596 1.36109 22.2838 4.48528C25.408 7.60948 25.408 12.6748 22.2838 15.799ZM10.2979 17.8854C14.2259 21.1039 20.0314 20.8798 23.698 17.2132C27.6033 13.308 27.6033 6.97631 23.698 3.07107C19.7928 -0.834175 13.4611 -0.834175 9.55589 3.07107C5.88929 6.73766 5.66523 12.5432 8.88369 16.4712L0.363497 24.9914L1.77771 26.4056L10.2979 17.8854Z" fill="white"/>
</svg>
