<svg width="27" height="27" viewBox="0 0 27 27" fill="none" xmlns="http://www.w3.org/2000/svg">
<path d="M23.9513 8.99175C23.9513 9.23154 23.9513 9.47132 23.9513 9.67686C23.9513 16.7678 18.5367 24.9549 8.66713 24.9549C5.61715 24.9549 2.80706 24.0642 0.408203 22.557C0.819436 22.5912 1.26494 22.6255 1.67617 22.6255C4.17784 22.6255 6.50816 21.7691 8.3587 20.3303C5.99411 20.2961 4.00649 18.7203 3.35537 16.5965C3.69807 16.665 4.00649 16.6993 4.38345 16.6993C4.86322 16.6993 5.343 16.6307 5.7885 16.4937C3.3211 16.0141 1.47055 13.856 1.47055 11.2526C1.47055 11.2184 1.47055 11.2184 1.47055 11.1841C2.19021 11.5952 3.01268 11.835 3.90368 11.8692C2.46437 10.9101 1.50482 9.26579 1.50482 7.38173C1.50482 6.38832 1.77898 5.46342 2.22448 4.67554C4.86322 7.92982 8.83847 10.0537 13.2935 10.2935C13.1907 9.91665 13.1564 9.47132 13.1564 9.06026C13.1564 6.08002 15.5553 3.68213 18.5367 3.68213C20.0788 3.68213 21.4839 4.33299 22.4434 5.36065C23.6771 5.12086 24.808 4.67554 25.8704 4.05894C25.4591 5.3264 24.6024 6.35407 23.5058 7.03918C24.6024 6.90216 25.6305 6.62811 26.59 6.18279C25.9046 7.27897 25.0136 8.23812 23.9513 8.99175Z" fill="#888888"/>
</svg>
