<svg width="116" height="120" viewBox="0 0 116 120" fill="none" xmlns="http://www.w3.org/2000/svg">
<path d="M22.0012 30.7903L109.31 26.7391V108.131L22.0012 112.575V30.7903Z" fill="#F3DC5D"/>
<path d="M6.52515 10.9023L80.1829 2.79993L104.858 21.2144L26.0445 26.7387L6.52515 10.9023Z" fill="#F3DC5D"/>
<path d="M41.2168 2.48412C22.4309 3.87418 6.46076 5.15255 5.7099 5.30224C3.60463 5.67768 1.68945 7.10575 0.788884 8.98529L0 10.6391L0.0760369 50.0548L0.187716 89.4704L1.39005 91.9131C2.06725 93.2651 6.65086 99.5786 11.6479 106.077C21.5303 118.89 22.2432 119.605 25.9999 119.98C27.0905 120.092 35.2811 119.717 44.149 119.191C53.0548 118.628 67.3307 117.763 75.8991 117.276C112.494 115.054 110.615 115.242 112.718 113.439C115.348 111.26 115.16 114.829 115.272 66.9231C115.348 26.3051 115.31 23.639 114.709 22.3987C113.996 21.0086 112.718 20.032 96.0347 8.30808C84.8763 0.492905 84.0874 0.0794547 79.0879 0.00341774C77.0231 -0.0702431 59.9646 1.05605 41.2168 2.48412ZM83.4482 7.63088C85.0259 8.34372 96.5622 16.3846 98.2516 17.9268C98.7031 18.3782 98.8528 18.7537 98.6271 18.9794C98.1019 19.4309 26.7104 23.6771 24.6455 23.3753C23.7069 23.2256 22.3168 22.6624 21.528 22.1349C18.2584 19.918 10.1438 13.2671 10.1438 12.78C10.1438 11.5016 9.88005 11.5016 41.7063 9.21102C47.794 8.79757 57.7881 8.0467 63.8758 7.55722C77.0611 6.50458 81.0079 6.5426 83.4482 7.63088ZM106.143 28.1846C106.668 28.7098 107.119 29.7244 107.269 30.701C107.381 31.6039 107.457 48.4366 107.381 68.0494C107.269 101.715 107.231 103.82 106.592 104.797C106.216 105.398 105.466 106.037 104.9 106.225C103.325 106.864 28.5162 111.11 26.9765 110.659C26.2636 110.471 25.2847 109.87 24.7595 109.345L23.8566 108.368L23.7449 72.0722C23.6689 46.5975 23.7449 35.325 24.0467 34.3104C24.2724 33.5595 24.8356 32.6565 25.3251 32.3572C26.0023 31.9057 30.4362 31.5302 45.6911 30.6297C56.4004 30.0285 72.9693 29.0139 82.4763 28.4508C105.09 27.0583 105.017 27.0583 106.143 28.1846Z" fill="#1E1E1E"/>
<path d="M77.8762 39.8748L96.4479 38.299L96.0903 41.1955C95.3339 41.7625 94.4962 42.261 93.5773 42.6909C92.7083 43.1166 91.7602 43.4988 90.733 43.8374L74.7996 64.9507L87.2153 86.8264C88.3348 86.9828 89.3338 87.1998 90.2121 87.4772C91.0905 87.7547 91.9003 88.1133 92.6416 88.5533L92.3589 91.4434L68.1707 93.4958L68.4535 90.6057C69.314 90.0801 70.2037 89.6024 71.1226 89.1724C72.0373 88.6925 73.0332 88.2812 74.1103 87.9384L65.7544 72.1293L53.5231 89.7606C54.5427 89.9255 55.4646 90.1239 56.2888 90.3556C57.163 90.5832 57.9978 90.9397 58.7932 91.4254L58.4356 94.3219L39.2648 95.9485L39.6224 93.052C40.4245 92.4308 41.2622 91.9324 42.1354 91.5566C43.0543 91.1266 44.0024 90.7445 44.9797 90.4101L62.8574 67.3216L51.6426 47.1542C50.7228 46.9809 49.8736 46.7512 49.0951 46.4653C48.3166 46.1794 47.5567 45.8164 46.8154 45.3765L47.1731 42.48L70.837 40.4721L70.4794 43.3686C69.8143 43.8273 69.0244 44.2966 68.1098 44.7764C67.1909 45.2064 66.0951 45.6262 64.8225 46.0359L71.8596 60.5238L82.9449 44.4982C81.9752 44.3291 81.0012 44.11 80.023 43.841C79.0905 43.5179 78.2557 43.1613 77.5186 42.7713L77.8762 39.8748Z" fill="#1E1E1E"/>
</svg>
