<svg width="158" height="43" viewBox="0 0 158 43" fill="none" xmlns="http://www.w3.org/2000/svg">
<path d="M43 21.5C43 33.3741 33.3741 43 21.5 43C9.62588 43 0 33.3741 0 21.5C0 9.62588 9.62588 0 21.5 0C33.3741 0 43 9.62588 43 21.5Z" fill="#0B37AA"/>
<path d="M24.5838 40.1425C31.2482 38.066 33.4677 34.0734 35.6935 29.5959C37.9193 25.1184 36.7989 27.1896 38.8916 20.4434C40.5658 15.0464 37.1823 10.204 35.2812 8.45747C34.0989 7.32214 30.6653 4.75111 26.389 3.54969C22.1128 2.34826 15.6983 3.60988 12.6858 5.03592C11.1699 5.8438 5.78668 6.63018 3.76631 14.5296C2.33341 20.1321 3.15603 23.8922 3.28736 25.6768C3.53887 29.0943 7.57599 31.0557 9.58681 34.0387C11.5234 36.9061 17.8428 42.2428 24.5838 40.1425Z" fill="#1B4CCA"/>
<path d="M21.2793 41.0658C27.8868 41.0658 29.397 38.539 31.322 36.176C34.822 31.8796 36.9137 31.7883 40.247 25.9875C42.5747 21.9367 39.9546 15.1709 38.5527 12.9446C37.691 11.5133 35.0385 8.04777 31.322 5.63598C27.6055 3.22419 20.5015 3.54916 17.414 4.01311C15.8418 4.33253 10.3842 4.82948 8.08064 9.37802C5.38514 14.7004 5.38501 17.8869 5.38501 18.9814C5.38501 20.3805 8.20011 26.2383 9.4484 29.674C10.6517 32.9777 14.5958 41.0658 21.2793 41.0658Z" fill="#1E55E2"/>
<path d="M8.53772 33.3567C12.0713 38.4289 19.1859 37.6815 22.3015 36.6738C25.9423 35.9901 24.7378 36.5751 30.7463 34.9469C35.5531 33.6443 37.8493 28.5669 38.3965 26.1911C38.7743 24.6894 39.3177 20.6839 38.4689 16.6747C37.62 12.6655 32.7459 8.23917 30.415 6.52718C29.1732 5.70993 25.5033 4.05054 20.7579 3.95095C14.826 3.82647 12.7073 8.02911 12.6623 8.48995C12.6263 8.85862 9.72757 15.0887 8.28271 18.1576C6.89539 21.1106 5.00413 28.2846 8.53772 33.3567Z" fill="#4173F3"/>
<path d="M15.3365 38.1969C20.4261 41.3367 26.4394 37.9504 28.8099 35.8647C31.7708 33.8649 30.9298 34.8443 35.6231 31.1012C39.3777 28.1068 39.4502 22.73 39.0171 20.4159C38.7716 18.9411 37.7055 15.1849 35.4047 11.9586C33.104 8.73235 27.0766 6.678 24.3504 6.0541C22.9348 5.8057 19.0429 5.74113 14.8009 7.47008C9.49848 9.63126 9.38347 14.1436 9.38347 14.5907C9.38347 15.4704 9.33315 21.5596 9.23891 24.8314C9.15082 27.9783 10.247 35.0572 15.3365 38.1969Z" fill="#7399FA"/>
<path d="M13.9329 36.3362C18.2292 39.972 24.2924 37.643 26.787 36.024C29.8187 34.5669 28.9004 35.3648 33.7856 32.52C37.6938 30.2441 38.5092 25.2345 38.4283 23.0141C38.4052 21.6033 37.9364 17.949 36.2456 14.6185C34.5548 11.2879 29.2354 8.53564 26.787 7.5758C25.505 7.14792 21.8948 6.54889 17.7094 7.5758C12.4777 8.85944 11.6115 13.0573 11.6808 13.4736C11.7363 13.8066 10.6646 19.9727 10.1218 23.0141C9.60206 25.9399 9.63671 32.7004 13.9329 36.3362Z" fill="#B0C6FF"/>
<path d="M56.9268 10.158H67.6473V14.2966H61.6775V19.6989H67.1785V23.9322H61.6775V32.0515H56.9268V10.158Z" fill="white"/>
<path d="M77.659 10.158H82.3473V26.7124C82.3473 28.4394 81.7951 29.8189 80.6907 30.851C79.6072 31.8619 77.9924 32.3674 75.8462 32.3674C73.7208 32.3674 72.106 31.8619 71.0016 30.851C69.9181 29.84 69.3763 28.4605 69.3763 26.7124V10.158H74.0646V26.4596C74.0646 27.5127 74.6585 28.0392 75.8462 28.0392C77.0547 28.0392 77.659 27.5127 77.659 26.4596V10.158Z" fill="white"/>
<path d="M85.0076 10.158H89.7584V28.0708H95.5406V32.0515H85.0076V10.158Z" fill="white"/>
<path d="M96.782 15.3391C96.782 13.6542 97.355 12.3484 98.5011 11.4217C99.6679 10.4739 101.418 10 103.752 10C105.294 10 106.607 10.1474 107.69 10.4423V14.802C106.523 14.444 105.367 14.265 104.221 14.265C103.096 14.265 102.366 14.4019 102.033 14.6757C101.7 14.9284 101.533 15.3075 101.533 15.813V26.428C101.533 27.439 102.314 27.9445 103.877 27.9445C105.461 27.9445 106.763 27.7865 107.784 27.4706V31.7356C106.659 32.0515 105.294 32.2094 103.689 32.2094C101.356 32.2094 99.6158 31.7461 98.4698 30.8194C97.3446 29.8927 96.782 28.5868 96.782 26.9019V15.3391Z" fill="white"/>
<path d="M114.663 24.1534V32.0515H109.975V10.158H117.039C118.747 10.158 120.081 10.5687 121.039 11.3901C121.998 12.2115 122.477 13.412 122.477 14.9916V19.0354C122.477 21.5628 121.623 23.1424 119.914 23.7743L123.321 32.0515H118.164L115.257 24.1534H114.663ZM114.663 14.2018V20.3939H116.507C116.987 20.3939 117.32 20.2886 117.508 20.078C117.695 19.8674 117.789 19.4988 117.789 18.9722V15.4023C117.789 14.9389 117.685 14.623 117.476 14.4545C117.268 14.286 116.945 14.2018 116.507 14.2018H114.663Z" fill="white"/>
<path d="M133.18 10.158H137.868V26.7124C137.868 28.4394 137.316 29.8189 136.211 30.851C135.128 31.8619 133.513 32.3674 131.367 32.3674C129.242 32.3674 127.627 31.8619 126.522 30.851C125.439 29.84 124.897 28.4605 124.897 26.7124V10.158H129.585V26.4596C129.585 27.5127 130.179 28.0392 131.367 28.0392C132.575 28.0392 133.18 27.5127 133.18 26.4596V10.158Z" fill="white"/>
<path d="M158 10.158V32.0515H153.468V24.4377C153.468 22.2473 153.666 20.0885 154.062 17.9613L151.061 26.4912H147.436L144.435 17.9613C144.831 19.92 145.029 22.0788 145.029 24.4377V32.0515H140.528V10.158H145.342L149.249 21.3417L153.155 10.158H158Z" fill="white"/>
</svg>
